<svg id="visual" viewBox="0 0 960 300" width="960" height="300" xmlns="http://www.w3.org/2000/svg" xmlns:xlink="http://www.w3.org/1999/xlink" version="1.1"><rect x="0" y="0" width="960" height="300" fill="#e2e8f0"></rect><path d="M0 48L16 51C32 54 64 60 96 56.8C128 53.7 160 41.3 192 38.8C224 36.3 256 43.7 288 43.7C320 43.7 352 36.3 384 38.3C416 40.3 448 51.7 480 52.5C512 53.3 544 43.7 576 39.3C608 35 640 36 672 41.3C704 46.7 736 56.3 768 57.7C800 59 832 52 864 49.7C896 47.3 928 49.7 944 50.8L960 52L960 301L944 301C928 301 896 301 864 301C832 301 800 301 768 301C736 301 704 301 672 301C640 301 608 301 576 301C544 301 512 301 480 301C448 301 416 301 384 301C352 301 320 301 288 301C256 301 224 301 192 301C160 301 128 301 96 301C64 301 32 301 16 301L0 301Z" fill="#bae6fd"></path><path d="M0 65L16 68.8C32 72.7 64 80.3 96 85.8C128 91.3 160 94.7 192 91.3C224 88 256 78 288 74.2C320 70.3 352 72.7 384 74.2C416 75.7 448 76.3 480 80C512 83.7 544 90.3 576 89.3C608 88.3 640 79.7 672 80.2C704 80.7 736 90.3 768 90.3C800 90.3 832 80.7 864 75.8C896 71 928 71 944 71L960 71L960 301L944 301C928 301 896 301 864 301C832 301 800 301 768 301C736 301 704 301 672 301C640 301 608 301 576 301C544 301 512 301 480 301C448 301 416 301 384 301C352 301 320 301 288 301C256 301 224 301 192 301C160 301 128 301 96 301C64 301 32 301 16 301L0 301Z" fill="#9dcae4"></path><path d="M0 129L16 129C32 129 64 129 96 124.5C128 120 160 111 192 111.8C224 112.7 256 123.3 288 126.8C320 130.3 352 126.7 384 125C416 123.3 448 123.7 480 124.8C512 126 544 128 576 129.8C608 131.7 640 133.3 672 134C704 134.7 736 134.3 768 130.5C800 126.7 832 119.3 864 115.3C896 111.3 928 110.7 944 110.3L960 110L960 301L944 301C928 301 896 301 864 301C832 301 800 301 768 301C736 301 704 301 672 301C640 301 608 301 576 301C544 301 512 301 480 301C448 301 416 301 384 301C352 301 320 301 288 301C256 301 224 301 192 301C160 301 128 301 96 301C64 301 32 301 16 301L0 301Z" fill="#81afcb"></path><path d="M0 155L16 156.2C32 157.3 64 159.7 96 160C128 160.3 160 158.7 192 158.3C224 158 256 159 288 160.2C320 161.3 352 162.7 384 159.2C416 155.7 448 147.3 480 144.2C512 141 544 143 576 146.8C608 150.7 640 156.3 672 155.5C704 154.7 736 147.3 768 145.5C800 143.7 832 147.3 864 148.5C896 149.7 928 148.3 944 147.7L960 147L960 301L944 301C928 301 896 301 864 301C832 301 800 301 768 301C736 301 704 301 672 301C640 301 608 301 576 301C544 301 512 301 480 301C448 301 416 301 384 301C352 301 320 301 288 301C256 301 224 301 192 301C160 301 128 301 96 301C64 301 32 301 16 301L0 301Z" fill="#6694b3"></path><path d="M0 185L16 187.2C32 189.3 64 193.7 96 197C128 200.3 160 202.7 192 200C224 197.3 256 189.7 288 185C320 180.3 352 178.7 384 181.3C416 184 448 191 480 195.7C512 200.3 544 202.7 576 199.7C608 196.7 640 188.3 672 186C704 183.7 736 187.3 768 189.3C800 191.3 832 191.7 864 192C896 192.3 928 192.7 944 192.8L960 193L960 301L944 301C928 301 896 301 864 301C832 301 800 301 768 301C736 301 704 301 672 301C640 301 608 301 576 301C544 301 512 301 480 301C448 301 416 301 384 301C352 301 320 301 288 301C256 301 224 301 192 301C160 301 128 301 96 301C64 301 32 301 16 301L0 301Z" fill="#4b7a9b"></path><path d="M0 241L16 236.3C32 231.7 64 222.3 96 222.5C128 222.7 160 232.3 192 234.2C224 236 256 230 288 226.8C320 223.7 352 223.3 384 225C416 226.7 448 230.3 480 232.7C512 235 544 236 576 233C608 230 640 223 672 219.5C704 216 736 216 768 220C800 224 832 232 864 233C896 234 928 228 944 225L960 222L960 301L944 301C928 301 896 301 864 301C832 301 800 301 768 301C736 301 704 301 672 301C640 301 608 301 576 301C544 301 512 301 480 301C448 301 416 301 384 301C352 301 320 301 288 301C256 301 224 301 192 301C160 301 128 301 96 301C64 301 32 301 16 301L0 301Z" fill="#2f6284"></path><path d="M0 250L16 249.7C32 249.3 64 248.7 96 252.3C128 256 160 264 192 265.3C224 266.7 256 261.3 288 259.3C320 257.3 352 258.7 384 261.8C416 265 448 270 480 267.8C512 265.7 544 256.3 576 254.8C608 253.3 640 259.7 672 263.5C704 267.3 736 268.7 768 268.3C800 268 832 266 864 263C896 260 928 256 944 254L960 252L960 301L944 301C928 301 896 301 864 301C832 301 800 301 768 301C736 301 704 301 672 301C640 301 608 301 576 301C544 301 512 301 480 301C448 301 416 301 384 301C352 301 320 301 288 301C256 301 224 301 192 301C160 301 128 301 96 301C64 301 32 301 16 301L0 301Z" fill="#0c4a6e"></path></svg>