<svg id="visual" viewBox="0 0 960 300" width="960" height="300" xmlns="http://www.w3.org/2000/svg" xmlns:xlink="http://www.w3.org/1999/xlink" version="1.1"><rect x="0" y="0" width="960" height="300" fill="#e2e8f0"></rect><path d="M0 57L40 70.3C80 83.7 160 110.3 240 109.3C320 108.3 400 79.7 480 68.5C560 57.3 640 63.7 720 73.3C800 83 880 96 920 102.5L960 109L960 301L920 301C880 301 800 301 720 301C640 301 560 301 480 301C400 301 320 301 240 301C160 301 80 301 40 301L0 301Z" fill="#10b981"></path><path d="M0 109L40 112C80 115 160 121 240 126.5C320 132 400 137 480 140C560 143 640 144 720 140.7C800 137.3 880 129.7 920 125.8L960 122L960 301L920 301C880 301 800 301 720 301C640 301 560 301 480 301C400 301 320 301 240 301C160 301 80 301 40 301L0 301Z" fill="#009472"></path><path d="M0 208L40 200.2C80 192.3 160 176.7 240 171.8C320 167 400 173 480 172.8C560 172.7 640 166.3 720 163.8C800 161.3 880 162.7 920 163.3L960 164L960 301L920 301C880 301 800 301 720 301C640 301 560 301 480 301C400 301 320 301 240 301C160 301 80 301 40 301L0 301Z" fill="#00715f"></path><path d="M0 194L40 197.7C80 201.3 160 208.7 240 209C320 209.3 400 202.7 480 198C560 193.3 640 190.7 720 192.3C800 194 880 200 920 203L960 206L960 301L920 301C880 301 800 301 720 301C640 301 560 301 480 301C400 301 320 301 240 301C160 301 80 301 40 301L0 301Z" fill="#004f48"></path><path d="M0 245L40 242C80 239 160 233 240 234.8C320 236.7 400 246.3 480 250.3C560 254.3 640 252.7 720 247.5C800 242.3 880 233.7 920 229.3L960 225L960 301L920 301C880 301 800 301 720 301C640 301 560 301 480 301C400 301 320 301 240 301C160 301 80 301 40 301L0 301Z" fill="#042f2e"></path></svg>