<svg id="visual" viewBox="0 0 960 300" width="960" height="300" xmlns="http://www.w3.org/2000/svg" xmlns:xlink="http://www.w3.org/1999/xlink" version="1.1"><rect x="0" y="0" width="960" height="300" fill="#e2e8f0"></rect><path d="M0 100L22.8 92.7C45.7 85.3 91.3 70.7 137 73.2C182.7 75.7 228.3 95.3 274 96.7C319.7 98 365.3 81 411.2 79.5C457 78 503 92 548.8 104C594.7 116 640.3 126 686 118.7C731.7 111.3 777.3 86.7 823 82.3C868.7 78 914.3 94 937.2 102L960 110L960 301L937.2 301C914.3 301 868.7 301 823 301C777.3 301 731.7 301 686 301C640.3 301 594.7 301 548.8 301C503 301 457 301 411.2 301C365.3 301 319.7 301 274 301C228.3 301 182.7 301 137 301C91.3 301 45.7 301 22.8 301L0 301Z" fill="#c4b5fd"></path><path d="M0 102L22.8 107.5C45.7 113 91.3 124 137 134.7C182.7 145.3 228.3 155.7 274 155.3C319.7 155 365.3 144 411.2 134.7C457 125.3 503 117.7 548.8 115.5C594.7 113.3 640.3 116.7 686 119.8C731.7 123 777.3 126 823 132C868.7 138 914.3 147 937.2 151.5L960 156L960 301L937.2 301C914.3 301 868.7 301 823 301C777.3 301 731.7 301 686 301C640.3 301 594.7 301 548.8 301C503 301 457 301 411.2 301C365.3 301 319.7 301 274 301C228.3 301 182.7 301 137 301C91.3 301 45.7 301 22.8 301L0 301Z" fill="#9291cb"></path><path d="M0 193L22.8 195.5C45.7 198 91.3 203 137 203.2C182.7 203.3 228.3 198.7 274 196.3C319.7 194 365.3 194 411.2 185.5C457 177 503 160 548.8 162.5C594.7 165 640.3 187 686 196C731.7 205 777.3 201 823 191.5C868.7 182 914.3 167 937.2 159.5L960 152L960 301L937.2 301C914.3 301 868.7 301 823 301C777.3 301 731.7 301 686 301C640.3 301 594.7 301 548.8 301C503 301 457 301 411.2 301C365.3 301 319.7 301 274 301C228.3 301 182.7 301 137 301C91.3 301 45.7 301 22.8 301L0 301Z" fill="#656d99"></path><path d="M0 224L22.8 220.3C45.7 216.7 91.3 209.3 137 211.2C182.7 213 228.3 224 274 224.7C319.7 225.3 365.3 215.7 411.2 209.3C457 203 503 200 548.8 200.8C594.7 201.7 640.3 206.3 686 213.5C731.7 220.7 777.3 230.3 823 233C868.7 235.7 914.3 231.3 937.2 229.2L960 227L960 301L937.2 301C914.3 301 868.7 301 823 301C777.3 301 731.7 301 686 301C640.3 301 594.7 301 548.8 301C503 301 457 301 411.2 301C365.3 301 319.7 301 274 301C228.3 301 182.7 301 137 301C91.3 301 45.7 301 22.8 301L0 301Z" fill="#3e4a69"></path><path d="M0 263L22.8 260C45.7 257 91.3 251 137 246.8C182.7 242.7 228.3 240.3 274 244.3C319.7 248.3 365.3 258.7 411.2 258C457 257.3 503 245.7 548.8 242C594.7 238.3 640.3 242.7 686 245.8C731.7 249 777.3 251 823 250.2C868.7 249.3 914.3 245.7 937.2 243.8L960 242L960 301L937.2 301C914.3 301 868.7 301 823 301C777.3 301 731.7 301 686 301C640.3 301 594.7 301 548.8 301C503 301 457 301 411.2 301C365.3 301 319.7 301 274 301C228.3 301 182.7 301 137 301C91.3 301 45.7 301 22.8 301L0 301Z" fill="#1e293b"></path></svg>