<svg id="visual" viewBox="0 0 960 300" width="960" height="300" xmlns="http://www.w3.org/2000/svg" xmlns:xlink="http://www.w3.org/1999/xlink" version="1.1"><rect x="0" y="0" width="960" height="300" fill="#1e293b"></rect><path d="M0 118L14.5 117.3C29 116.7 58 115.3 87.2 114.5C116.3 113.7 145.7 113.3 174.8 105.7C204 98 233 83 262 75.3C291 67.7 320 67.3 349 66.5C378 65.7 407 64.3 436.2 71.3C465.3 78.3 494.7 93.7 523.8 93.3C553 93 582 77 611 75.8C640 74.7 669 88.3 698 96.2C727 104 756 106 785.2 104.3C814.3 102.7 843.7 97.3 872.8 94.5C902 91.7 931 91.3 945.5 91.2L960 91L960 301L945.5 301C931 301 902 301 872.8 301C843.7 301 814.3 301 785.2 301C756 301 727 301 698 301C669 301 640 301 611 301C582 301 553 301 523.8 301C494.7 301 465.3 301 436.2 301C407 301 378 301 349 301C320 301 291 301 262 301C233 301 204 301 174.8 301C145.7 301 116.3 301 87.2 301C58 301 29 301 14.5 301L0 301Z" fill="#a5b4fc"></path><path d="M0 126L14.5 129.3C29 132.7 58 139.3 87.2 133.8C116.3 128.3 145.7 110.7 174.8 110.2C204 109.7 233 126.3 262 131.8C291 137.3 320 131.7 349 133.3C378 135 407 144 436.2 139.7C465.3 135.3 494.7 117.7 523.8 116.5C553 115.3 582 130.7 611 133.8C640 137 669 128 698 118.3C727 108.7 756 98.3 785.2 100.5C814.3 102.7 843.7 117.3 872.8 123.8C902 130.3 931 128.7 945.5 127.8L960 127L960 301L945.5 301C931 301 902 301 872.8 301C843.7 301 814.3 301 785.2 301C756 301 727 301 698 301C669 301 640 301 611 301C582 301 553 301 523.8 301C494.7 301 465.3 301 436.2 301C407 301 378 301 349 301C320 301 291 301 262 301C233 301 204 301 174.8 301C145.7 301 116.3 301 87.2 301C58 301 29 301 14.5 301L0 301Z" fill="#abbefb"></path><path d="M0 162L14.5 158C29 154 58 146 87.2 144.8C116.3 143.7 145.7 149.3 174.8 146.8C204 144.3 233 133.7 262 133.2C291 132.7 320 142.3 349 149.5C378 156.7 407 161.3 436.2 156.2C465.3 151 494.7 136 523.8 134.2C553 132.3 582 143.7 611 151C640 158.3 669 161.7 698 165.2C727 168.7 756 172.3 785.2 168.8C814.3 165.3 843.7 154.7 872.8 151.2C902 147.7 931 151.3 945.5 153.2L960 155L960 301L945.5 301C931 301 902 301 872.8 301C843.7 301 814.3 301 785.2 301C756 301 727 301 698 301C669 301 640 301 611 301C582 301 553 301 523.8 301C494.7 301 465.3 301 436.2 301C407 301 378 301 349 301C320 301 291 301 262 301C233 301 204 301 174.8 301C145.7 301 116.3 301 87.2 301C58 301 29 301 14.5 301L0 301Z" fill="#b3c7fa"></path><path d="M0 194L14.5 194.2C29 194.3 58 194.7 87.2 190.5C116.3 186.3 145.7 177.7 174.8 174.5C204 171.3 233 173.7 262 174.3C291 175 320 174 349 174.8C378 175.7 407 178.3 436.2 179.3C465.3 180.3 494.7 179.7 523.8 179.5C553 179.3 582 179.7 611 181.2C640 182.7 669 185.3 698 188.2C727 191 756 194 785.2 189.2C814.3 184.3 843.7 171.7 872.8 166.3C902 161 931 163 945.5 164L960 165L960 301L945.5 301C931 301 902 301 872.8 301C843.7 301 814.3 301 785.2 301C756 301 727 301 698 301C669 301 640 301 611 301C582 301 553 301 523.8 301C494.7 301 465.3 301 436.2 301C407 301 378 301 349 301C320 301 291 301 262 301C233 301 204 301 174.8 301C145.7 301 116.3 301 87.2 301C58 301 29 301 14.5 301L0 301Z" fill="#bdd0f8"></path><path d="M0 204L14.5 206.2C29 208.3 58 212.7 87.2 211.3C116.3 210 145.7 203 174.8 197.3C204 191.7 233 187.3 262 187.5C291 187.7 320 192.3 349 195.3C378 198.3 407 199.7 436.2 202.7C465.3 205.7 494.7 210.3 523.8 208.5C553 206.7 582 198.3 611 199.8C640 201.3 669 212.7 698 217.8C727 223 756 222 785.2 222.2C814.3 222.3 843.7 223.7 872.8 224.5C902 225.3 931 225.7 945.5 225.8L960 226L960 301L945.5 301C931 301 902 301 872.8 301C843.7 301 814.3 301 785.2 301C756 301 727 301 698 301C669 301 640 301 611 301C582 301 553 301 523.8 301C494.7 301 465.3 301 436.2 301C407 301 378 301 349 301C320 301 291 301 262 301C233 301 204 301 174.8 301C145.7 301 116.3 301 87.2 301C58 301 29 301 14.5 301L0 301Z" fill="#c8d8f6"></path><path d="M0 226L14.5 226.3C29 226.7 58 227.3 87.2 226.7C116.3 226 145.7 224 174.8 225.7C204 227.3 233 232.7 262 234.5C291 236.3 320 234.7 349 230.8C378 227 407 221 436.2 219C465.3 217 494.7 219 523.8 224C553 229 582 237 611 236.7C640 236.3 669 227.7 698 223.3C727 219 756 219 785.2 221.7C814.3 224.3 843.7 229.7 872.8 233C902 236.3 931 237.7 945.5 238.3L960 239L960 301L945.5 301C931 301 902 301 872.8 301C843.7 301 814.3 301 785.2 301C756 301 727 301 698 301C669 301 640 301 611 301C582 301 553 301 523.8 301C494.7 301 465.3 301 436.2 301C407 301 378 301 349 301C320 301 291 301 262 301C233 301 204 301 174.8 301C145.7 301 116.3 301 87.2 301C58 301 29 301 14.5 301L0 301Z" fill="#d4e0f3"></path><path d="M0 270L14.5 269C29 268 58 266 87.2 263.7C116.3 261.3 145.7 258.7 174.8 259.8C204 261 233 266 262 267.7C291 269.3 320 267.7 349 264.5C378 261.3 407 256.7 436.2 254.3C465.3 252 494.7 252 523.8 253.8C553 255.7 582 259.3 611 258.5C640 257.7 669 252.3 698 252C727 251.7 756 256.3 785.2 257.2C814.3 258 843.7 255 872.8 253.2C902 251.3 931 250.7 945.5 250.3L960 250L960 301L945.5 301C931 301 902 301 872.8 301C843.7 301 814.3 301 785.2 301C756 301 727 301 698 301C669 301 640 301 611 301C582 301 553 301 523.8 301C494.7 301 465.3 301 436.2 301C407 301 378 301 349 301C320 301 291 301 262 301C233 301 204 301 174.8 301C145.7 301 116.3 301 87.2 301C58 301 29 301 14.5 301L0 301Z" fill="#e2e8f0"></path></svg>