<svg id="visual" viewBox="0 0 960 300" width="960" height="300" xmlns="http://www.w3.org/2000/svg" xmlns:xlink="http://www.w3.org/1999/xlink" version="1.1"><path d="M0 70L14.5 74.3C29 78.7 58 87.3 87.2 89C116.3 90.7 145.7 85.3 174.8 87.5C204 89.7 233 99.3 262 103.7C291 108 320 107 349 100C378 93 407 80 436.2 79.5C465.3 79 494.7 91 523.8 96.7C553 102.3 582 101.7 611 106C640 110.3 669 119.7 698 117.7C727 115.7 756 102.3 785.2 92.2C814.3 82 843.7 75 872.8 74C902 73 931 78 945.5 80.5L960 83L960 301L945.5 301C931 301 902 301 872.8 301C843.7 301 814.3 301 785.2 301C756 301 727 301 698 301C669 301 640 301 611 301C582 301 553 301 523.8 301C494.7 301 465.3 301 436.2 301C407 301 378 301 349 301C320 301 291 301 262 301C233 301 204 301 174.8 301C145.7 301 116.3 301 87.2 301C58 301 29 301 14.5 301L0 301Z" fill="#a5b4fc"></path><path d="M0 145L14.5 147.7C29 150.3 58 155.7 87.2 148.2C116.3 140.7 145.7 120.3 174.8 109.8C204 99.3 233 98.7 262 98.5C291 98.3 320 98.7 349 104.8C378 111 407 123 436.2 124.8C465.3 126.7 494.7 118.3 523.8 120.5C553 122.7 582 135.3 611 135C640 134.7 669 121.3 698 120C727 118.7 756 129.3 785.2 133.2C814.3 137 843.7 134 872.8 129C902 124 931 117 945.5 113.5L960 110L960 301L945.5 301C931 301 902 301 872.8 301C843.7 301 814.3 301 785.2 301C756 301 727 301 698 301C669 301 640 301 611 301C582 301 553 301 523.8 301C494.7 301 465.3 301 436.2 301C407 301 378 301 349 301C320 301 291 301 262 301C233 301 204 301 174.8 301C145.7 301 116.3 301 87.2 301C58 301 29 301 14.5 301L0 301Z" fill="#adc0fb"></path><path d="M0 169L14.5 168.8C29 168.7 58 168.3 87.2 162.5C116.3 156.7 145.7 145.3 174.8 146.7C204 148 233 162 262 162.2C291 162.3 320 148.7 349 149.3C378 150 407 165 436.2 168.7C465.3 172.3 494.7 164.7 523.8 165.7C553 166.7 582 176.3 611 179C640 181.7 669 177.3 698 169.8C727 162.3 756 151.7 785.2 147.5C814.3 143.3 843.7 145.7 872.8 151C902 156.3 931 164.7 945.5 168.8L960 173L960 301L945.5 301C931 301 902 301 872.8 301C843.7 301 814.3 301 785.2 301C756 301 727 301 698 301C669 301 640 301 611 301C582 301 553 301 523.8 301C494.7 301 465.3 301 436.2 301C407 301 378 301 349 301C320 301 291 301 262 301C233 301 204 301 174.8 301C145.7 301 116.3 301 87.2 301C58 301 29 301 14.5 301L0 301Z" fill="#b7cbf9"></path><path d="M0 209L14.5 206.5C29 204 58 199 87.2 192.5C116.3 186 145.7 178 174.8 181.3C204 184.7 233 199.3 262 201.2C291 203 320 192 349 190.3C378 188.7 407 196.3 436.2 197.2C465.3 198 494.7 192 523.8 185.7C553 179.3 582 172.7 611 174.5C640 176.3 669 186.7 698 191.2C727 195.7 756 194.3 785.2 191C814.3 187.7 843.7 182.3 872.8 178.5C902 174.7 931 172.3 945.5 171.2L960 170L960 301L945.5 301C931 301 902 301 872.8 301C843.7 301 814.3 301 785.2 301C756 301 727 301 698 301C669 301 640 301 611 301C582 301 553 301 523.8 301C494.7 301 465.3 301 436.2 301C407 301 378 301 349 301C320 301 291 301 262 301C233 301 204 301 174.8 301C145.7 301 116.3 301 87.2 301C58 301 29 301 14.5 301L0 301Z" fill="#c3d5f7"></path><path d="M0 206L14.5 211.2C29 216.3 58 226.7 87.2 227.8C116.3 229 145.7 221 174.8 222C204 223 233 233 262 236.5C291 240 320 237 349 230.8C378 224.7 407 215.3 436.2 214.5C465.3 213.7 494.7 221.3 523.8 223.2C553 225 582 221 611 221.5C640 222 669 227 698 230C727 233 756 234 785.2 235.8C814.3 237.7 843.7 240.3 872.8 241.7C902 243 931 243 945.5 243L960 243L960 301L945.5 301C931 301 902 301 872.8 301C843.7 301 814.3 301 785.2 301C756 301 727 301 698 301C669 301 640 301 611 301C582 301 553 301 523.8 301C494.7 301 465.3 301 436.2 301C407 301 378 301 349 301C320 301 291 301 262 301C233 301 204 301 174.8 301C145.7 301 116.3 301 87.2 301C58 301 29 301 14.5 301L0 301Z" fill="#d2dff3"></path><path d="M0 263L14.5 264.2C29 265.3 58 267.7 87.2 267.2C116.3 266.7 145.7 263.3 174.8 261.5C204 259.7 233 259.3 262 259.5C291 259.7 320 260.3 349 258.3C378 256.3 407 251.7 436.2 249.7C465.3 247.7 494.7 248.3 523.8 248.7C553 249 582 249 611 249C640 249 669 249 698 251.2C727 253.3 756 257.7 785.2 256.5C814.3 255.3 843.7 248.7 872.8 249.8C902 251 931 260 945.5 264.5L960 269L960 301L945.5 301C931 301 902 301 872.8 301C843.7 301 814.3 301 785.2 301C756 301 727 301 698 301C669 301 640 301 611 301C582 301 553 301 523.8 301C494.7 301 465.3 301 436.2 301C407 301 378 301 349 301C320 301 291 301 262 301C233 301 204 301 174.8 301C145.7 301 116.3 301 87.2 301C58 301 29 301 14.5 301L0 301Z" fill="#e2e8f0"></path></svg>