<svg id="visual" viewBox="0 0 960 300" width="960" height="300" xmlns="http://www.w3.org/2000/svg" xmlns:xlink="http://www.w3.org/1999/xlink" version="1.1"><rect x="0" y="0" width="960" height="300" fill="#e2e8f0"></rect><path d="M0 67L160 64L320 12L480 74L640 44L800 17L960 74L960 301L800 301L640 301L480 301L320 301L160 301L0 301Z" fill="#14532d"></path><path d="M0 55L160 93L320 79L480 107L640 85L800 93L960 76L960 301L800 301L640 301L480 301L320 301L160 301L0 301Z" fill="#40633a"></path><path d="M0 101L160 117L320 89L480 116L640 85L800 82L960 93L960 301L800 301L640 301L480 301L320 301L160 301L0 301Z" fill="#61734b"></path><path d="M0 131L160 106L320 118L480 122L640 107L800 162L960 120L960 301L800 301L640 301L480 301L320 301L160 301L0 301Z" fill="#7f8361"></path><path d="M0 205L160 186L320 192L480 178L640 174L800 158L960 178L960 301L800 301L640 301L480 301L320 301L160 301L0 301Z" fill="#9a957a"></path><path d="M0 190L160 180L320 175L480 199L640 225L800 201L960 176L960 301L800 301L640 301L480 301L320 301L160 301L0 301Z" fill="#b2a896"></path><path d="M0 228L160 224L320 254L480 207L640 218L800 244L960 230L960 301L800 301L640 301L480 301L320 301L160 301L0 301Z" fill="#c6bdb3"></path><path d="M0 292L160 237L320 284L480 279L640 246L800 284L960 241L960 301L800 301L640 301L480 301L320 301L160 301L0 301Z" fill="#d6d3d1"></path></svg>